{
  "accessors": [
    {
      "bufferView": 2,
      "componentType": 5126,
      "count": 1413,
      "max": [
        1.8668030500411987,
        -0.6302030086517334,
        5.532721996307373
      ],
      "min": [
        -1.7158139944076538,
        -1.2430859804153442,
        2.8259739875793457
      ],
      "type": "VEC3"
    },
    {
      "bufferView": 2,
      "byteOffset": 16956,
      "componentType": 5126,
      "count": 1413,
      "max": [
        0.9931703805923462,
        0.5705065727233887,
        0.6872985363006592
      ],
      "min": [
        0.6515139937400818,
        -0.7536928057670593,
        -0.646269679069519
      ],
      "type": "VEC3"
    },
    {
      "bufferView": 1,
      "componentType": 5126,
      "count": 1413,
      "max": [
        0.9934539794921875,
        0.8908830285072327
      ],
      "min": [
        0.008057000115513802,
        0.003837999887764454
      ],
      "type": "VEC2"
    },
    {
      "bufferView": 0,
      "componentType": 5125,
      "count": 7122,
      "type": "SCALAR"
    },
    {
      "bufferView": 2,
      "byteOffset": 33912,
      "componentType": 5126,
      "count": 938,
      "max": [
        0.9280959963798523,
        -0.4680519998073578,
        0.804764986038208
      ],
      "min": [
        -0.6992740035057068,
        -1.3963119983673096,
        0.21253299713134766
      ],
      "type": "VEC3"
    },
    {
      "bufferView": 2,
      "byteOffset": 45168,
      "componentType": 5126,
      "count": 938,
      "max": [
        0.9994217157363892,
        0.5676088333129883,
        0.68389493227005
      ],
      "min": [
        0.6510912775993347,
        -0.7568354606628418,
        -0.6377768516540527
      ],
      "type": "VEC3"
    },
    {
      "bufferView": 1,
      "byteOffset": 11304,
      "componentType": 5126,
      "count": 938,
      "max": [
        0.9941859841346741,
        0.9902340173721313
      ],
      "min": [
        0.011687999591231346,
        0.006775000132620335
      ],
      "type": "VEC2"
    },
    {
      "bufferView": 0,
      "byteOffset": 28488,
      "componentType": 5125,
      "count": 3600,
      "type": "SCALAR"
    },
    {
      "bufferView": 2,
      "byteOffset": 56424,
      "componentType": 5126,
      "count": 2079,
      "max": [
        0.8711860179901123,
        -0.48495399951934814,
        3.432687997817993
      ],
      "min": [
        -0.6348069906234741,
        -1.2937519550323486,
        0.2591080069541931
      ],
      "type": "VEC3"
    },
    {
      "bufferView": 2,
      "byteOffset": 81372,
      "componentType": 5126,
      "count": 2079,
      "max": [
        0.9999456405639648,
        0.5675110816955566,
        0.687792181968689
      ],
      "min": [
        0.6504735350608826,
        -0.7569284439086914,
        -0.6453676819801331
      ],
      "type": "VEC3"
    },
    {
      "bufferView": 1,
      "byteOffset": 18808,
      "componentType": 5126,
      "count": 2079,
      "max": [
        0.9969789981842041,
        0.9942319989204407
      ],
      "min": [
        0.004790999926626682,
        0.0039980001747608185
      ],
      "type": "VEC2"
    },
    {
      "bufferView": 0,
      "byteOffset": 42888,
      "componentType": 5125,
      "count": 8502,
      "type": "SCALAR"
    },
    {
      "bufferView": 2,
      "byteOffset": 106320,
      "componentType": 5126,
      "count": 3002,
      "max": [
        1.868203043937683,
        -0.3756130039691925,
        5.1525068283081055
      ],
      "min": [
        -1.7174270153045654,
        -1.329190969467163,
        2.8329720497131348
      ],
      "type": "VEC3"
    },
    {
      "bufferView": 2,
      "byteOffset": 142344,
      "componentType": 5126,
      "count": 3002,
      "max": [
        0.9998645782470703,
        0.5673981308937073,
        0.6876950263977051
      ],
      "min": [
        0.6503196358680725,
        -0.7565951347351074,
        -0.646240770816803
      ],
      "type": "VEC3"
    },
    {
      "bufferView": 1,
      "byteOffset": 35440,
      "componentType": 5126,
      "count": 3002,
      "max": [
        0.9973300099372864,
        0.9954829812049866
      ],
      "min": [
        0.003539999946951866,
        0.0026700000744313
      ],
      "type": "VEC2"
    },
    {
      "bufferView": 0,
      "byteOffset": 76896,
      "componentType": 5125,
      "count": 11028,
      "type": "SCALAR"
    },
    {
      "bufferView": 2,
      "byteOffset": 178368,
      "componentType": 5126,
      "count": 185,
      "max": [
        0.26047199964523315,
        -0.9409649968147278,
        5.499424934387207
      ],
      "min": [
        -0.17283199727535248,
        -1.2783739566802979,
        4.823172092437744
      ],
      "type": "VEC3"
    },
    {
      "bufferView": 2,
      "byteOffset": 180588,
      "componentType": 5126,
      "count": 185,
      "max": [
        0.8959754705429077,
        0.5689279437065125,
        0.6844707131385803
      ],
      "min": [
        0.6651847958564758,
        -0.7206045389175415,
        -0.6395766735076904
      ],
      "type": "VEC3"
    },
    {
      "bufferView": 1,
      "byteOffset": 59456,
      "componentType": 5126,
      "count": 185,
      "max": [
        0.9910889863967896,
        0.9916530251502991
      ],
      "min": [
        0.007385000120848417,
        0.015639999881386757
      ],
      "type": "VEC2"
    },
    {
      "bufferView": 0,
      "byteOffset": 121008,
      "componentType": 5125,
      "count": 798,
      "type": "SCALAR"
    },
    {
      "bufferView": 2,
      "byteOffset": 182808,
      "componentType": 5126,
      "count": 534,
      "max": [
        0.29604700207710266,
        -0.5661159753799438,
        5.598298072814941
      ],
      "min": [
        -0.22309400141239166,
        -1.4509769678115845,
        5.063449859619141
      ],
      "type": "VEC3"
    },
    {
      "bufferView": 2,
      "byteOffset": 189216,
      "componentType": 5126,
      "count": 534,
      "max": [
        0.9990416765213013,
        0.5682069659233093,
        0.6808025240898132
      ],
      "min": [
        0.6538103222846985,
        -0.7539219856262207,
        -0.6431128978729248
      ],
      "type": "VEC3"
    },
    {
      "bufferView": 1,
      "byteOffset": 60936,
      "componentType": 5126,
      "count": 534,
      "max": [
        0.993270993232727,
        0.9903410077095032
      ],
      "min": [
        0.00675999978557229,
        0.007691000122576952
      ],
      "type": "VEC2"
    },
    {
      "bufferView": 0,
      "byteOffset": 124200,
      "componentType": 5125,
      "count": 2079,
      "type": "SCALAR"
    },
    {
      "bufferView": 2,
      "byteOffset": 195624,
      "componentType": 5126,
      "count": 1866,
      "max": [
        0.333636999130249,
        -0.5073260068893433,
        5.447004795074463
      ],
      "min": [
        -0.2839820086956024,
        -1.0691510438919067,
        4.787055969238281
      ],
      "type": "VEC3"
    },
    {
      "bufferView": 2,
      "byteOffset": 218016,
      "componentType": 5126,
      "count": 1866,
      "max": [
        0.9590179324150085,
        0.5685985088348389,
        0.687168538570404
      ],
      "min": [
        0.6517263054847717,
        -0.7572116255760193,
        -0.6357938647270203
      ],
      "type": "VEC3"
    },
    {
      "bufferView": 1,
      "byteOffset": 65208,
      "componentType": 5126,
      "count": 1866,
      "max": [
        0.9826509952545166,
        1.0
      ],
      "min": [
        0.0,
        0.0018919999711215496
      ],
      "type": "VEC2"
    },
    {
      "bufferView": 0,
      "byteOffset": 132516,
      "componentType": 5125,
      "count": 5961,
      "type": "SCALAR"
    }
  ],
  "asset": {
    "extras": {
      "author": "PACE GAMING FF (https://sketchfab.com/MDARBAZ_.OR___-PACEGAMINGFF)",
      "license": "CC-BY-4.0 (http://creativecommons.org/licenses/by/4.0/)",
      "source": "https://sketchfab.com/3d-models/freefire-new-male-3d-model-by-pace-gaming-ff-23d91052e2c0442db2eda79ad2a537a0",
      "title": "freefire new male 3d model by pace gaming ff"
    },
    "generator": "Sketchfab-15.37.0",
    "version": "2.0"
  },
  "bufferViews": [
    {
      "buffer": 0,
      "byteLength": 156360,
      "name": "floatBufferViews",
      "target": 34963
    },
    {
      "buffer": 0,
      "byteLength": 80136,
      "byteOffset": 156360,
      "byteStride": 8,
      "name": "floatBufferViews",
      "target": 34962
    },
    {
      "buffer": 0,
      "byteLength": 240408,
      "byteOffset": 236496,
      "byteStride": 12,
      "name": "floatBufferViews",
      "target": 34962
    }
  ],
  "buffers": [
    {
      "byteLength": 476904,
      "uri": "scene.bin"
    }
  ],
  "images": [
    {
      "uri": "textures/mat0_baseColor.png"
    },
    {
      "uri": "textures/mat0.001_baseColor.png"
    },
    {
      "uri": "textures/mat0.002_baseColor.png"
    },
    {
      "uri": "textures/mat0.003_baseColor.png"
    },
    {
      "uri": "textures/mat0.004_baseColor.png"
    },
    {
      "uri": "textures/mat0.005_baseColor.png"
    },
    {
      "uri": "textures/mat0.006_baseColor.png"
    }
  ],
  "materials": [
    {
      "doubleSided": true,
      "name": "mat0",
      "pbrMetallicRoughness": {
        "baseColorTexture": {
          "index": 0
        },
        "metallicFactor": 0.0
      }
    },
    {
      "doubleSided": true,
      "name": "mat0.001",
      "pbrMetallicRoughness": {
        "baseColorTexture": {
          "index": 1
        },
        "metallicFactor": 0.0
      }
    },
    {
      "doubleSided": true,
      "name": "mat0.002",
      "pbrMetallicRoughness": {
        "baseColorTexture": {
          "index": 2
        },
        "metallicFactor": 0.0
      }
    },
    {
      "doubleSided": true,
      "name": "mat0.003",
      "pbrMetallicRoughness": {
        "baseColorTexture": {
          "index": 3
        },
        "metallicFactor": 0.0
      }
    },
    {
      "doubleSided": true,
      "name": "mat0.004",
      "pbrMetallicRoughness": {
        "baseColorTexture": {
          "index": 4
        },
        "metallicFactor": 0.0
      }
    },
    {
      "doubleSided": true,
      "name": "mat0.005",
      "pbrMetallicRoughness": {
        "baseColorTexture": {
          "index": 5
        },
        "metallicFactor": 0.0
      }
    },
    {
      "doubleSided": true,
      "name": "mat0.006",
      "pbrMetallicRoughness": {
        "baseColorTexture": {
          "index": 6
        },
        "metallicFactor": 0.0
      }
    }
  ],
  "meshes": [
    {
      "name": "Object_0",
      "primitives": [
        {
          "attributes": {
            "NORMAL": 1,
            "POSITION": 0,
            "TEXCOORD_0": 2
          },
          "indices": 3,
          "material": 0,
          "mode": 4
        }
      ]
    },
    {
      "name": "Object_1",
      "primitives": [
        {
          "attributes": {
            "NORMAL": 5,
            "POSITION": 4,
            "TEXCOORD_0": 6
          },
          "indices": 7,
          "material": 1,
          "mode": 4
        }
      ]
    },
    {
      "name": "Object_2",
      "primitives": [
        {
          "attributes": {
            "NORMAL": 9,
            "POSITION": 8,
            "TEXCOORD_0": 10
          },
          "indices": 11,
          "material": 2,
          "mode": 4
        }
      ]
    },
    {
      "name": "Object_3",
      "primitives": [
        {
          "attributes": {
            "NORMAL": 13,
            "POSITION": 12,
            "TEXCOORD_0": 14
          },
          "indices": 15,
          "material": 3,
          "mode": 4
        }
      ]
    },
    {
      "name": "Object_4",
      "primitives": [
        {
          "attributes": {
            "NORMAL": 17,
            "POSITION": 16,
            "TEXCOORD_0": 18
          },
          "indices": 19,
          "material": 4,
          "mode": 4
        }
      ]
    },
    {
      "name": "Object_5",
      "primitives": [
        {
          "attributes": {
            "NORMAL": 21,
            "POSITION": 20,
            "TEXCOORD_0": 22
          },
          "indices": 23,
          "material": 5,
          "mode": 4
        }
      ]
    },
    {
      "name": "Object_6",
      "primitives": [
        {
          "attributes": {
            "NORMAL": 25,
            "POSITION": 24,
            "TEXCOORD_0": 26
          },
          "indices": 27,
          "material": 6,
          "mode": 4
        }
      ]
    }
  ],
  "nodes": [
    {
      "children": [
        1
      ],
      "matrix": [
        1.0,
        0.0,
        0.0,
        0.0,
        0.0,
        2.220446049250313e-16,
        -1.0,
        0.0,
        0.0,
        1.0,
        2.220446049250313e-16,
        0.0,
        0.0,
        0.0,
        0.0,
        1.0
      ],
      "name": "Sketchfab_model"
    },
    {
      "children": [
        2,
        3,
        4,
        5,
        6,
        7,
        8
      ],
      "name": "1.obj.cleaner.materialmerger.gles"
    },
    {
      "mesh": 0,
      "name": "Object_2"
    },
    {
      "mesh": 1,
      "name": "Object_3"
    },
    {
      "mesh": 2,
      "name": "Object_4"
    },
    {
      "mesh": 3,
      "name": "Object_5"
    },
    {
      "mesh": 4,
      "name": "Object_6"
    },
    {
      "mesh": 5,
      "name": "Object_7"
    },
    {
      "mesh": 6,
      "name": "Object_8"
    }
  ],
  "samplers": [
    {
      "magFilter": 9729,
      "minFilter": 9987,
      "wrapS": 10497,
      "wrapT": 10497
    }
  ],
  "scene": 0,
  "scenes": [
    {
      "name": "Sketchfab_Scene",
      "nodes": [
        0
      ]
    }
  ],
  "textures": [
    {
      "sampler": 0,
      "source": 0
    },
    {
      "sampler": 0,
      "source": 1
    },
    {
      "sampler": 0,
      "source": 2
    },
    {
      "sampler": 0,
      "source": 3
    },
    {
      "sampler": 0,
      "source": 4
    },
    {
      "sampler": 0,
      "source": 5
    },
    {
      "sampler": 0,
      "source": 6
    }
  ]
}
